<svg width="66.145mm" height="8.6712mm" version="1.1" viewBox="0 0 66.145 8.6712" xmlns="http://www.w3.org/2000/svg">
 <g transform="translate(267.93 -90.876)">
  <g transform="matrix(.2493 0 0 .2493 -195.93 74.748)" stroke-width=".26458">
   <path d="m-46.708 99.2c-1.4193-0.57275-1.4174-0.55585-1.4174-12.497 0-8.6503 0.0719-11.06 0.33073-11.084 1.9935-0.18365 4.6175 1.7937 5.2096 3.9258 0.16972 0.61113 0.27812 4.6743 0.27902 10.458l2e-3 9.4589-1.9182-0.0168c-1.055-9e-3 -2.1734-0.11974-2.4852-0.24559zm8.1593-7.8802 0.0806-7.878 0.86628-1.7586c1.086-2.2047 3.1724-4.178 5.2862-4.9994 1.23-0.47803 2.2208-0.61384 5.1863-0.71093l3.6658-0.12001-0.19194 0.89068c-0.53018 2.4602-2.5827 4.198-4.9584 4.198-1.2306 0-3.0615 1.0055-4.018 2.2066l-0.80908 1.016-0.13229 7.0116c-0.13163 6.9761-0.13546 7.0141-0.75692 7.5168-0.48066 0.38879-1.0481 0.50524-2.4619 0.50524h-1.8373zm-7.5455-19.121c-1.037-0.30212-1.973-1.3942-2.1911-2.5565-0.38041-2.0278 1.6803-4.052 3.7331-3.6669 1.1579 0.21723 2.4093 1.467 2.5888 2.5856 0.35632 2.2204-1.9684 4.2677-4.1307 3.6378z" fill="#a2a2a2"/>
   <path d="m-197.96 98.556c-1.4375-0.45309-3.5456-2.7134-3.921-4.2041-0.40531-1.6096-0.4257-16.428-0.0256-18.619 1.179-6.455 7.522-11.033 13.745-9.921 7.5387 1.3472 11.947 8.891 9.4053 16.095-1.4471 4.1014-5.3902 7.0988-10.227 7.7744-1.2476 0.17427-2.468 0.24024-2.712 0.14661-0.37184-0.14269-0.44362-0.57517-0.44362-2.6729 0-2.3885 0.0318-2.5276 0.69714-3.051 0.38342-0.3016 1.068-0.54953 1.5214-0.55095 1.9832-6e-3 4.4634-1.8194 5.3319-3.8981 1.5332-3.6694-1.7643-8.023-5.8219-7.6865-2.0721 0.17184-3.7446 1.2725-4.6934 3.0887l-0.7393 1.4152v22.429l-0.59531-0.027c-0.32742-0.0149-1.012-0.15836-1.5214-0.31889zm24.342-0.26673c0-1.7213 1.6248-4.0001 3.5719-5.0094 0.88264-0.45757 1.7274-0.57451 5.0888-0.70442l4.0305-0.15578 0.83465-0.83532c1.0326-1.0335 1.3341-2.9614 0.66528-4.2547-0.74045-1.4319-1.7984-1.8474-5.063-1.9884-3.6254-0.15661-5.3794-0.77065-7.3525-2.5739-4.2942-3.9247-4.4434-10.083-0.34354-14.183 2.6504-2.6503 3.4077-2.8484 11.334-2.9644l6.5484-0.0958v0.76216c0 1.1247-1.2171 3.3683-2.2577 4.1621-1.53 1.167-2.8101 1.4665-6.2684 1.4665-2.3611 0-3.396 0.10825-4.0636 0.42505-1.8762 0.8903-2.5389 3.4037-1.3591 5.1544 0.84357 1.2518 1.6086 1.556 3.9247 1.5604 5.354 0.0104 8.8713 1.9801 10.77 6.0316 0.60449 1.2897 0.7091 1.8642 0.7091 3.8942 0 2.0532-0.10202 2.6-0.74043 3.9688-0.97181 2.0836-3.0096 4.1301-5.0527 5.0744l-1.6152 0.74647-13.361 0.1654z" fill="#d8484a"/>
   <path d="m-57.82 99.2c-1.037-0.30212-1.973-1.3942-2.1911-2.5565-0.38041-2.0278 1.6803-4.052 3.7331-3.6669 1.1579 0.21723 2.4093 1.467 2.5888 2.5856 0.35632 2.2204-1.9684 4.2677-4.1307 3.6378z" fill="#a2a2a2"/>
   <g transform="matrix(.44343 0 0 .44343 -116.18 75.412)">
    <path d="m-251.61 32.064c-3.4626-1.6192-4.2205-6.3597-1.4212-8.8888 1.3494-1.2191 2.0269-1.4739 3.9045-1.4685 1.8848 0.0054 3.2893 0.75045 4.4035 2.3358 0.70155 0.99819 0.80475 1.3711 0.80475 2.9082 0 2.185-0.65227 3.5597-2.2118 4.6614-1.444 1.0201-3.8419 1.2178-5.4798 0.4519zm-99.925-2.176c-1.7139-0.90488-2.0534-1.9722-2.0534-6.4552v-3.847l-3.9026-0.0043c-3.5501-4e-3 -3.9957-0.05774-4.9334-0.59531-2.5599-1.4676-2.6602-5.0849-0.18685-6.7373 0.83718-0.55927 1.1784-0.60058 4.9609-0.60058l4.0619-1.4e-5 5.3e-4 -3.9026c2.6e-4 -3.1874 0.0852-4.0713 0.46302-4.8234 0.69629-1.3859 1.9752-2.1219 3.687-2.1219 1.9257 0.12227 2.4701 0.69683 3.2133 1.9569s0.57376 4.4395 0.57376 4.4395l0.13229 4.3192 4.2333 0.13229c3.6966 0.11552 4.3228 0.19938 4.9386 0.66146 2.332 1.7497 2.0128 5.5108-0.57825 6.8126-0.75203 0.37783-1.636 0.46268-4.8234 0.46302l-3.9027 4.1e-4v4.0619c0 3.7825-0.0413 4.1238-0.60059 4.9609-1.1658 1.7451-3.384 2.2823-5.2835 1.2794zm89.625-8.9541c-3.5184-0.89231-5.3203-4.4205-3.864-7.5659 1.7275-3.7312 6.6505-4.4389 9.2172-1.3252 2.8028 3.4003 0.80115 8.3376-3.6334 8.9619-0.50933 0.07171-1.2832 0.0398-1.7198-0.07092zm21.96-0.26381c-4.2654-1.981-4.4382-7.7186-0.29745-9.8789 4.1311-2.1553 8.9653 1.6948 7.8232 6.2305-0.81723 3.2455-4.524 5.0426-7.5258 3.6484zm-10.319-11.122c-2.7157-0.65878-4.3744-2.7513-4.3582-5.4981 0.0108-1.8392 0.927-3.4628 2.5056-4.4403 1.0929-0.67671 1.545-0.79375 3.0658-0.79375 1.5602 0 1.9275 0.10093 2.9289 0.80475 2.6667 1.8742 3.2308 5.3217 1.3116 8.0169-0.97673 1.3717-3.7172 2.3317-5.4538 1.9104z" fill="#333"/>
    <path d="m-355.97 53.881c-11.84-1.8505-22.157-8.9346-28.121-19.309-2.6078-4.5359-4.3846-10.17-4.9878-15.816-0.59566-5.5754 0.41281-12.575 2.5994-18.043 6.2202-15.553 21.459-25.403 38.156-24.662 5.8601 0.26004 10.61 1.4769 15.769 4.0401 7.5 3.7261 13.952 10.133 17.563 17.439 1.6814 3.4027 2.5514 5.8791 3.3925 9.6573 0.57795 2.5961 0.68032 3.7223 0.69748 7.6729 0.0294 6.782-1.1123 11.93-3.8788 17.491l-1.105 2.2208-19.191 0.1389 1.1108-0.9955c6.2419-5.5938 9.3412-13.386 8.4176-21.163-0.69309-5.8362-2.8506-10.307-7.0061-14.518-5.0624-5.1299-10.256-7.3148-17.462-7.3458-4.0856-0.0176-6.8969 0.57752-10.332 2.1873-2.7958 1.3101-4.2297 2.3032-6.6621 4.6137-4.906 4.6602-7.4798 10.689-7.4798 17.519 0 7.1805 2.1776 12.42 7.2509 17.446 3.5479 3.515 6.738 5.3534 11.569 6.6669 1.5512 0.4218 4.4573 0.46486 36.448 0.54019l34.762 0.0819-0.16639 1.4157c-0.57435 4.8868-3.4824 9.1948-7.7307 11.452-3.2805 1.7432-1.8811 1.6736-33.091 1.6453-22.101-0.02-28.763-0.10235-30.521-0.37713zm102.39 0.22242c-1.9429-0.20069-6.2463-1.2142-8.435-1.9866-5.5908-1.973-10.414-5.0327-14.72-9.3387-6.0734-6.073-9.8754-13.643-11.134-22.17-1.0877-7.3692 0.39047-16.535 3.679-22.813l1.1088-2.1167 18.995-0.139-1.8343 1.7893c-4.5838 4.4714-7.2005 10.033-7.6446 16.247-0.77936 10.907 6.168 21.281 16.618 24.813 6.0446 2.0432 12.582 1.6783 18.349-1.0242 2.9979-1.4049 5.0979-2.9387 7.5069-5.4829 3.1762-3.3545 5.3247-7.5663 6.2432-12.239 0.63648-3.238 0.40461-8.0754-0.53915-11.248-2.7899-9.3784-10.767-16.277-20.341-17.591-1.3842-0.19008-13.104-0.2842-35.388-0.2842h-33.318v-0.75762c0-3.1645 1.6448-6.768 4.3017-9.424 2.1234-2.1228 4.0301-3.2227 6.9431-4.0052 1.7507-0.47028 3.2286-0.49785 26.988-0.5034 13.824-0.0032 26.712 0.07789 28.639 0.18027 10.498 0.55778 18.96 4.2901 26.279 11.59 10.592 10.566 14.166 25.656 9.4655 39.961-4.5496 13.845-16.834 24.139-31.435 26.34-2.265 0.34146-7.9107 0.45235-10.326 0.20283z" fill="#d8484a"/>
   </g>
   <path d="m-107.13 98.971c-1.158-0.34924-3.0593-1.8556-4.1574-3.2939-1.965-2.5736-3.1478-5.7291-3.5865-9.5683-0.24752-2.166 0.0694-2.4871 2.4568-2.4891 2.3804-2e-3 3.5864-0.38 4.8476-1.5194 1.6046-1.4496 2.1562-2.7296 2.0301-4.7103-0.18612-2.9229-2.278-5.1204-5.0969-5.3542-2.6199-0.21726-4.7221 1.0402-5.8739 3.5137-0.61514 1.321-0.61695 1.3573-0.61953 12.401l-3e-3 11.076-0.97988-0.18383c-2.124-0.39846-3.9404-1.8402-4.7488-3.7692-0.27627-0.65926-0.35678-2.9377-0.35678-10.097 0-8.2519 0.0526-9.4143 0.48941-10.818 2.3355-7.504 11.286-10.777 17.899-6.5454 5.1606 3.3025 7.0724 9.8806 4.4701 15.381-1.0084 2.1316-3.2089 4.3713-5.3334 5.4285-0.9804 0.48785-1.8309 0.91555-1.8901 0.95045-0.0591 0.0349 0.1121 0.55053 0.38055 1.1458 0.92813 2.0582 3.4204 3.6855 5.6447 3.6855 0.48776 0 0.82859 0.13619 0.82772 0.33073-0.0131 2.9279-3.4658 5.3208-6.4004 4.4357zm-38.616-0.37198c-1.8182-0.64951-3.4389-2.3478-3.931-4.119-0.36482-1.3132-0.33938-17.348 0.0303-19.114 0.44192-2.1105 1.9427-4.7602 3.5657-6.295 5.9855-5.6608 15.542-3.8574 19.084 3.6012 0.83548 1.7593 0.99092 2.3818 1.0848 4.3445 0.17638 3.689-0.74527 6.2252-3.2424 8.9224-2.3469 2.535-5.118 3.7159-9.0121 3.8406l-1.8521 0.0593-0.079-1.9813c-0.0435-1.0897-0.0123-2.2472 0.0694-2.5724 0.24069-0.95901 1.1968-1.6641 2.2566-1.6641 2.2932 0 4.9328-2.175 5.5867-4.6034 0.64213-2.3847-0.91209-5.4451-3.3209-6.5392-2.9315-1.3315-6.6441 0.2446-7.812 3.3166-0.17143 0.45088-0.27252 4.8818-0.27252 11.944v11.228l-0.59531-0.0116c-0.32742-6e-3 -1.0296-0.16677-1.5605-0.3564zm61.986-0.0221c-4.5851-1.0428-9.0446-4.4844-11.145-8.6007-2.3557-4.6176-2.3749-10.293-0.0508-15.068 1.431-2.9401 4.4458-5.9239 7.4566-7.38 2.2637-1.0948 5.3997-1.8984 7.4083-1.8984 2.0148 0 5.1423 0.80239 7.3854 1.8948 4.0453 1.97 7.296 5.8799 8.6535 10.408 0.33477 1.1167 0.47466 2.4506 0.47173 4.4979-4e-3 2.4868-0.11074 3.2182-0.73624 5.0245-1.8039 5.2095-5.4158 8.8595-10.526 10.636-2.4329 0.84608-6.3864 1.0612-8.9184 0.48537zm8.2024-6.9498c2.1067-1.0381 3.9673-2.9398 4.9287-5.0378 1.8437-4.0234 0.57486-9.5184-2.8186-12.206-5.4537-4.3194-13.03-2.5926-16.109 3.6718-0.64511 1.3123-0.72019 1.7546-0.72019 4.2432 0 2.4488 0.0827 2.9544 0.69722 4.2651 1.1945 2.5475 3.0602 4.3116 5.7566 5.443 1.2671 0.53167 1.8516 0.61202 4.0044 0.55046 2.2275-0.0637 2.7231-0.17184 4.2611-0.92968z" fill="#333"/>
  </g>
 </g>
</svg>
